# xmcd
#
# Track frame offsets:
#	150
#	18616
#	31826
#	54917
#	70816
#	92792
#	109604
#	131119
#	149354
#	161284
#	193663
#
# Disc length: 3019 seconds
# Revision: 0
# Processed by: cddbd v1.5.2PL0 Copyright (c) Steve Scherf et al.
# Submitted via: dBpowerAMP V12.0
#
DISCID=910bc90b
DTITLE=Mike Stevens and Matt Andersen - Push Record: The Banff Sessions
DYEAR=2011
DGENRE=Blues
TTITLE0=Snow Plow
TTITLE1=She Loves It All
TTITLE2=Pawnshop
TTITLE3=The Mountain
TTITLE4=Last Letter Home
TTITLE5=Canadian Winter Blues
TTITLE6=Stay In the Race
TTITLE7=Little Things
TTITLE8=Share the Load
TTITLE9=That Girl is Like a Train
TTITLE10=Push Record
EXTD=
EXTT0=
EXTT1=
EXTT2=
EXTT3=
EXTT4=
EXTT5=
EXTT6=
EXTT7=
EXTT8=
EXTT9=
EXTT10=
PLAYORDER=
